<?xml version="1.0" encoding="UTF-8"?>
<svg xmlns="http://www.w3.org/2000/svg" xmlns:xlink="http://www.w3.org/1999/xlink" width="375pt" height="374.999991pt" viewBox="0 0 375 374.999991" version="1.2">
<defs>
<clipPath id="clip1">
  <path d="M 51 279 L 80 279 L 80 311 L 51 311 Z M 51 279 "/>
</clipPath>
<clipPath id="clip2">
  <path d="M 51.722656 192.484375 L 193.324219 50.886719 L 311.054688 168.617188 L 169.457031 310.214844 Z M 51.722656 192.484375 "/>
</clipPath>
<clipPath id="clip3">
  <path d="M 51.46875 192.226562 L 193.066406 50.628906 L 311.332031 168.894531 L 169.734375 310.492188 Z M 51.46875 192.226562 "/>
</clipPath>
<clipPath id="clip4">
  <path d="M 138 80 L 231 80 L 231 172 L 138 172 Z M 138 80 "/>
</clipPath>
<clipPath id="clip5">
  <path d="M 51.722656 192.484375 L 193.324219 50.886719 L 311.054688 168.617188 L 169.457031 310.214844 Z M 51.722656 192.484375 "/>
</clipPath>
<clipPath id="clip6">
  <path d="M 51.46875 192.226562 L 193.066406 50.628906 L 311.332031 168.894531 L 169.734375 310.492188 Z M 51.46875 192.226562 "/>
</clipPath>
<clipPath id="clip7">
  <path d="M 71 146 L 164 146 L 164 239 L 71 239 Z M 71 146 "/>
</clipPath>
<clipPath id="clip8">
  <path d="M 51.722656 192.484375 L 193.324219 50.886719 L 311.054688 168.617188 L 169.457031 310.214844 Z M 51.722656 192.484375 "/>
</clipPath>
<clipPath id="clip9">
  <path d="M 51.46875 192.226562 L 193.066406 50.628906 L 311.332031 168.894531 L 169.734375 310.492188 Z M 51.46875 192.226562 "/>
</clipPath>
<clipPath id="clip10">
  <path d="M 130 113 L 308 113 L 308 287 L 130 287 Z M 130 113 "/>
</clipPath>
<clipPath id="clip11">
  <path d="M 51.722656 192.484375 L 193.324219 50.886719 L 311.054688 168.617188 L 169.457031 310.214844 Z M 51.722656 192.484375 "/>
</clipPath>
<clipPath id="clip12">
  <path d="M 51.46875 192.226562 L 193.066406 50.628906 L 311.332031 168.894531 L 169.734375 310.492188 Z M 51.46875 192.226562 "/>
</clipPath>
<clipPath id="clip13">
  <path d="M 150 165 L 253 165 L 253 267 L 150 267 Z M 150 165 "/>
</clipPath>
<clipPath id="clip14">
  <path d="M 51.722656 192.484375 L 193.324219 50.886719 L 311.054688 168.617188 L 169.457031 310.214844 Z M 51.722656 192.484375 "/>
</clipPath>
<clipPath id="clip15">
  <path d="M 51.46875 192.226562 L 193.066406 50.628906 L 311.332031 168.894531 L 169.734375 310.492188 Z M 51.46875 192.226562 "/>
</clipPath>
<clipPath id="clip16">
  <path d="M 249 119 L 302 119 L 302 172 L 249 172 Z M 249 119 "/>
</clipPath>
<clipPath id="clip17">
  <path d="M 51.722656 192.484375 L 193.324219 50.886719 L 311.054688 168.617188 L 169.457031 310.214844 Z M 51.722656 192.484375 "/>
</clipPath>
<clipPath id="clip18">
  <path d="M 51.46875 192.226562 L 193.066406 50.628906 L 311.332031 168.894531 L 169.734375 310.492188 Z M 51.46875 192.226562 "/>
</clipPath>
</defs>
<g id="surface1">
<g clip-path="url(#clip1)" clip-rule="nonzero">
<g clip-path="url(#clip2)" clip-rule="nonzero">
<g clip-path="url(#clip3)" clip-rule="nonzero">
<path style=" stroke:none;fill-rule:nonzero;fill:rgb(30.589294%,35.688782%,37.649536%);fill-opacity:1;" d="M 40.582031 298.917969 L 60.085938 279.414062 L 79.625 298.953125 L 60.121094 318.457031 Z M 40.582031 298.917969 "/>
</g>
</g>
</g>
<g clip-path="url(#clip4)" clip-rule="nonzero">
<g clip-path="url(#clip5)" clip-rule="nonzero">
<g clip-path="url(#clip6)" clip-rule="nonzero">
<path style=" stroke:none;fill-rule:nonzero;fill:rgb(97.648621%,73.728943%,31.369019%);fill-opacity:1;" d="M 152.332031 93.859375 C 134.472656 111.722656 134.5 140.734375 152.394531 158.632812 C 159.597656 165.835938 168.582031 170.121094 177.933594 171.546875 L 185.972656 163.507812 C 183.59375 163.050781 181.355469 161.890625 179.511719 160.046875 C 174.605469 155.140625 174.597656 147.207031 179.492188 142.308594 C 184.390625 137.410156 192.324219 137.417969 197.230469 142.324219 C 199.074219 144.167969 200.210938 146.4375 200.695312 148.789062 L 207.117188 142.363281 C 204.738281 141.90625 202.5 140.742188 200.65625 138.902344 C 195.75 133.992188 195.742188 126.0625 200.640625 121.164062 C 205.535156 116.265625 213.46875 116.273438 218.375 121.179688 C 223.28125 126.085938 223.289062 134.019531 218.390625 138.917969 C 216.863281 140.445312 215.078125 141.492188 213.152344 142.058594 L 222.882812 151.785156 C 234.820312 134.003906 232.871094 109.691406 217.132812 93.949219 C 199.152344 76.027344 170.195312 76 152.332031 93.859375 Z M 171.792969 146.949219 C 166.894531 151.84375 158.960938 151.835938 154.054688 146.929688 C 149.148438 142.023438 149.140625 134.089844 154.039062 129.195312 C 158.933594 124.296875 166.867188 124.304688 171.773438 129.210938 C 176.679688 134.117188 176.660156 142.078125 171.792969 146.949219 Z M 175.84375 117.371094 C 170.945312 122.269531 163.011719 122.261719 158.105469 117.355469 C 153.199219 112.449219 153.191406 104.515625 158.089844 99.617188 C 162.988281 94.722656 170.921875 94.726562 175.828125 99.636719 C 180.703125 104.570312 180.710938 112.503906 175.84375 117.371094 Z M 205.390625 113.347656 C 200.496094 118.246094 192.5625 118.238281 187.65625 113.332031 C 182.75 108.425781 182.742188 100.492188 187.636719 95.59375 C 192.535156 90.699219 200.46875 90.703125 205.375 95.609375 C 210.28125 100.519531 210.289062 108.449219 205.390625 113.347656 Z M 205.390625 113.347656 "/>
</g>
</g>
</g>
<g clip-path="url(#clip7)" clip-rule="nonzero">
<g clip-path="url(#clip8)" clip-rule="nonzero">
<g clip-path="url(#clip9)" clip-rule="nonzero">
<path style=" stroke:none;fill-rule:nonzero;fill:rgb(97.648621%,73.728943%,31.369019%);fill-opacity:1;" d="M 85.273438 159.84375 C 67.410156 177.703125 67.4375 206.71875 85.335938 224.613281 C 98.777344 238.054688 118.5 241.417969 135.042969 234.691406 L 128.09375 227.742188 C 123.25 230.882812 116.675781 230.308594 112.421875 226.054688 C 107.515625 221.148438 107.507812 213.214844 112.40625 208.320312 C 117.304688 203.421875 125.238281 203.429688 130.144531 208.335938 C 132.214844 210.40625 133.40625 213.011719 133.71875 215.707031 L 140.9375 208.488281 C 138.246094 208.171875 135.636719 206.980469 133.566406 204.910156 C 128.660156 200.003906 128.652344 192.070312 133.550781 187.171875 C 138.449219 182.277344 146.382812 182.285156 151.289062 187.191406 C 153.359375 189.261719 154.550781 191.867188 154.863281 194.5625 L 163.074219 186.351562 C 161.789062 176.6875 157.472656 167.335938 150.042969 159.902344 C 132.148438 142.007812 103.132812 141.980469 85.273438 159.84375 Z M 104.761719 212.957031 C 99.863281 217.855469 91.929688 217.847656 87.023438 212.941406 C 82.117188 208.035156 82.109375 200.101562 87.007812 195.203125 C 91.902344 190.308594 99.835938 190.316406 104.742188 195.222656 C 109.648438 200.128906 109.65625 208.0625 104.761719 212.957031 Z M 108.785156 183.351562 C 103.886719 188.25 95.953125 188.242188 91.046875 183.335938 C 86.140625 178.429688 86.132812 170.496094 91.03125 165.597656 C 95.925781 160.703125 103.859375 160.710938 108.765625 165.617188 C 113.671875 170.523438 113.679688 178.457031 108.785156 183.351562 Z M 138.371094 161.59375 C 143.277344 166.5 143.285156 174.433594 138.390625 179.328125 C 133.492188 184.226562 125.558594 184.21875 120.652344 179.3125 C 115.746094 174.40625 115.738281 166.472656 120.636719 161.574219 C 125.503906 156.707031 133.464844 156.6875 138.371094 161.59375 Z M 138.371094 161.59375 "/>
</g>
</g>
</g>
<g clip-path="url(#clip10)" clip-rule="nonzero">
<g clip-path="url(#clip11)" clip-rule="nonzero">
<g clip-path="url(#clip12)" clip-rule="nonzero">
<path style=" stroke:none;fill-rule:nonzero;fill:rgb(30.589294%,35.688782%,37.649536%);fill-opacity:1;" d="M 229.695312 164.371094 L 210.238281 144.917969 L 130.613281 224.542969 L 192.4375 286.367188 L 272.0625 206.742188 L 256.125 190.804688 L 307.101562 166.144531 L 254.097656 113.140625 Z M 229.695312 164.371094 "/>
</g>
</g>
</g>
<g clip-path="url(#clip13)" clip-rule="nonzero">
<g clip-path="url(#clip14)" clip-rule="nonzero">
<g clip-path="url(#clip15)" clip-rule="nonzero">
<path style=" stroke:none;fill-rule:nonzero;fill:rgb(21.569824%,23.139954%,41.178894%);fill-opacity:1;" d="M 252.34375 206.949219 L 192.5625 266.734375 L 150.785156 224.957031 L 210.539062 165.203125 L 252.316406 206.980469 Z M 192.554688 261.066406 L 246.648438 206.972656 L 210.546875 170.871094 L 156.453125 224.964844 Z M 192.554688 261.066406 "/>
</g>
</g>
</g>
<g clip-path="url(#clip16)" clip-rule="nonzero">
<g clip-path="url(#clip17)" clip-rule="nonzero">
<g clip-path="url(#clip18)" clip-rule="nonzero">
<path style=" stroke:none;fill-rule:nonzero;fill:rgb(21.569824%,23.139954%,41.178894%);fill-opacity:1;" d="M 249.203125 123.363281 L 296.933594 171.09375 L 301.070312 169.058594 L 251.210938 119.199219 Z M 249.203125 123.363281 "/>
</g>
</g>
</g>
</g>
</svg>
